<?xml version="1.0" encoding="UTF-8"?>
<svg width="99px" height="85px" viewBox="0 0 99 85" version="1.1" xmlns="http://www.w3.org/2000/svg" xmlns:xlink="http://www.w3.org/1999/xlink">
    <!-- Generator: Sketch 45.1 (43504) - http://www.bohemiancoding.com/sketch -->
    <title>002-multimedia</title>
    <desc>Created with Sketch.</desc>
    <defs></defs>
    <g id="Page-2" stroke="none" stroke-width="1" fill="none" fill-rule="evenodd">
        <g id="002-multimedia" fill-rule="nonzero">
            <path d="M89.8007813,15.9602122 L89.8007813,4.60559974 C89.8007813,2.09717371 87.9711681,0.0611551368 85.7172303,0.0611551368 L4.08240203,0.0611551368 C1.82808125,0.0611551368 0,2.09717371 0,4.60559974 L0,15.9602122 L89.8007813,15.9602122 L89.8007813,15.9602122 Z" id="Shape" fill="#E6E9ED"></path>
            <polygon id="Shape" fill="#656D78" points="89.8007813 77.2804891 75.8036187 77.2804891 0 77.2804891 0 9.14684809 89.8007813 9.14684809 89.8007813 56.6972043"></polygon>
            <path d="M9.08398828,4.60559974 C9.08398828,5.85981276 8.06736404,6.87451924 6.81336411,6.87451924 C5.55936418,6.87451924 4.54295302,5.85981276 4.54295302,4.60559974 C4.54295302,3.35138673 5.55936418,2.3332709 6.81336411,2.3332709 C8.06736404,2.3332709 9.08398828,3.35159981 9.08398828,4.60559974 Z" id="Shape" fill="#ED5564"></path>
            <path d="M15.8973524,4.60559974 C15.8973524,5.85981276 14.8809412,6.87451924 13.6269413,6.87451924 C12.3725152,6.87451924 11.3563171,5.85981276 11.3563171,4.60559974 C11.3563171,3.35138673 12.3725152,2.33348398 13.6267282,2.33348398 C14.8809412,2.33348398 15.8973524,3.35159981 15.8973524,4.60559974 Z" id="Shape" fill="#FFCE54"></path>
            <path d="M79.4914498,18.232541 L11.356104,18.232541 C10.101891,18.232541 9.08398828,19.2472475 9.08398828,20.5012475 C9.08398828,21.7554605 10.101891,22.7735763 11.356104,22.7735763 L79.4914498,22.7735763 C80.7422534,22.7735763 81.7601562,21.7554605 81.7601562,20.5012475 C81.7601562,19.2470344 80.7422534,18.232541 79.4914498,18.232541 Z" id="Shape" fill="#959FD6"></path>
            <path d="M11.356104,31.8590562 L47.6935487,31.8590562 C48.9477618,31.8590562 49.9639598,30.8411534 49.9639598,29.5867273 C49.9639598,28.3325143 48.9475487,27.3146116 47.6935487,27.3146116 L11.356104,27.3146116 C10.101891,27.3146116 9.08398828,28.3325143 9.08398828,29.5867273 C9.08398828,30.8411534 10.101891,31.8590562 11.356104,31.8590562 Z" id="Shape" fill="#7E8ACE"></path>
            <path d="M61.32049,36.4003045 L11.356104,36.4003045 C10.101891,36.4003045 9.08398828,37.4184203 9.08398828,38.6726334 C9.08398828,39.9268464 10.101891,40.9415529 11.356104,40.9415529 L61.3202769,40.9415529 C62.5742769,40.9415529 63.5889834,39.9268464 63.5889834,38.6726334 C63.5889834,37.4184203 62.5742769,36.4003045 61.32049,36.4003045 Z" id="Shape" fill="#48CFAD"></path>
            <path d="M11.356104,50.0272458 L43.1508088,50.0272458 C44.4050218,50.0272458 45.4229246,49.00913 45.4229246,47.754917 C45.4229246,46.5007039 44.4050218,45.4859975 43.1508088,45.4859975 L11.356104,45.4859975 C10.101891,45.4859975 9.08398828,46.500917 9.08398828,47.754917 C9.08398828,49.0089169 10.101891,50.0272458 11.356104,50.0272458 Z" id="Shape" fill="#5D9CEC"></path>
            <path d="M47.6935487,54.568068 L11.356104,54.568068 C10.101891,54.568068 9.08398828,55.5859707 9.08398828,56.8403968 C9.08398828,58.0946098 10.101891,59.1125126 11.356104,59.1125126 L47.6935487,59.1125126 C48.9477618,59.1125126 49.9639598,58.0946098 49.9639598,56.8403968 C49.9641729,55.5857576 48.9477618,54.568068 47.6935487,54.568068 Z" id="Shape" fill="#FFCE54"></path>
            <path d="M29.5240806,63.6535478 L11.356104,63.6535478 C10.101891,63.6535478 9.08398828,64.6714506 9.08398828,65.9258767 C9.08398828,67.1800897 10.101891,68.1945831 11.356104,68.1945831 L29.5240806,68.1945831 C30.7782936,68.1945831 31.7961964,67.1798766 31.7961964,65.9258767 C31.7961964,64.6716637 30.7782936,63.6535478 29.5240806,63.6535478 Z" id="Shape" fill="#959FD6"></path>
            <path d="M98.4727904,69.0627536 L98.4727904,57.7002509 L93.801785,57.7002509 C93.6056415,57.1316815 93.3798585,56.5741282 93.1267026,56.0359418 L96.4259238,52.6710774 L88.5426977,44.6347053 L85.2434764,47.9995697 C84.709966,47.7415813 84.1654716,47.5113107 83.6047627,47.3087579 L83.6047627,42.551254 L72.4552674,42.551254 L72.4552674,47.3087579 C71.8971737,47.5113107 71.3498897,47.7415813 70.8219585,47.9995697 L67.520122,44.6347053 L59.6342807,52.6710774 L62.9390811,56.0359418 C62.6829612,56.5741282 62.4599678,57.1316815 62.2610347,57.7002509 L57.5928189,57.7002509 L57.5928189,69.0627536 L62.2610347,69.0627536 C62.4599678,69.6343435 62.6829612,70.1890539 62.9390811,70.7300832 L59.6342807,74.0949476 L67.520122,82.1284769 L70.8219585,78.7636125 C71.3498897,79.024266 71.8971737,79.2545366 72.4552674,79.4542466 L72.4552674,84.2145933 L83.6047627,84.2145933 L83.6047627,79.4542466 C84.165646,79.2545366 84.7101404,79.024266 85.2434764,78.7636125 L88.5426977,82.1284769 L96.428539,74.0949476 L93.1267026,70.7300832 C93.3798585,70.1890539 93.6056415,69.6343435 93.801785,69.0627536 L98.4727904,69.0627536 L98.4727904,69.0627536 Z M78.0299279,69.0627536 C74.9538744,69.0627536 72.4550931,66.5191166 72.4550931,63.3815022 C72.4550931,60.2438879 74.9538744,57.7000732 78.0299279,57.7000732 C81.1113862,57.7000732 83.6047627,60.2438879 83.6047627,63.3815022 C83.6047627,66.5191166 81.1113862,69.0627536 78.0299279,69.0627536 Z" id="Shape" fill="#FFCE54"></path>
            <path d="M78.029793,53.4701762 C72.6666898,53.4701762 68.306556,57.9161435 68.306556,63.3818076 C68.306556,68.8472857 72.6668723,73.2964152 78.029793,73.2964152 C83.3956341,73.2964152 87.7588707,68.8472857 87.7588707,63.3818076 C87.7588707,57.9159575 83.3956341,53.4701762 78.029793,53.4701762 Z M78.029793,69.3290469 C74.8095218,69.3290469 72.1935875,66.6661539 72.1935875,63.3814356 C72.1935875,60.0967173 74.8095218,57.4336383 78.029793,57.4336383 C81.2557225,57.4336383 83.8659985,60.0967173 83.8659985,63.3814356 C83.8659985,66.6661539 81.2557225,69.3290469 78.029793,69.3290469 Z" id="Shape" fill="#F6BB42"></path>
        </g>
    </g>
</svg>