<?xml version="1.0" encoding="UTF-8"?>
<svg width="61px" height="77px" viewBox="0 0 61 77" version="1.1" xmlns="http://www.w3.org/2000/svg" xmlns:xlink="http://www.w3.org/1999/xlink">
    <!-- Generator: Sketch 45.1 (43504) - http://www.bohemiancoding.com/sketch -->
    <title>001-locked</title>
    <desc>Created with Sketch.</desc>
    <defs></defs>
    <g id="Page-2" stroke="none" stroke-width="1" fill="none" fill-rule="evenodd">
        <g id="001-locked" transform="translate(0.000000, 1.000000)" fill-rule="nonzero">
            <path d="M49.2151864,44.87267 L10.1325384,44.87267 L10.1325384,18.2400166 C10.1325384,8.18130099 18.8986316,0 29.6738624,0 C40.4490932,0 49.2151864,8.18130099 49.2151864,18.2400166 L49.2151864,44.87267 Z M15.9225603,39.082648 L43.4251645,39.082648 L43.4251645,18.2400166 C43.4251645,11.3744981 37.2558961,5.79002193 29.6738624,5.79002193 C22.0918287,5.79002193 15.9225603,11.3744981 15.9225603,18.2400166 L15.9225603,39.082648 Z" id="Shape" stroke="#C7CAC7" stroke-width="2" fill="#C7CAC7"></path>
            <rect id="Rectangle-path" fill="#7383BF" x="0" y="29.1876371" width="60.7952303" height="46.3201754"></rect>
            <rect id="Rectangle-path" fill="#6879AF" x="30.3976151" y="29.1876371" width="30.3976151" height="46.3201754"></rect>
            <polygon id="Shape" fill="#EBBA16" points="50.0634246 74.060307 59.3477248 64.7760069 59.3477248 59.5852522 51.2619592 59.5852522 36.7869043 74.060307"></polygon>
            <polygon id="Shape" fill="#4F5970" points="1.44750548 59.5852522 1.44750548 70.5660288 12.4282821 59.5852522"></polygon>
            <polygon id="Shape" fill="#424A60" points="32.6933588 74.060307 47.1684137 59.5852522 33.8918934 59.5852522 19.4168385 74.060307"></polygon>
            <path d="M29.7983479,59.5852522 L16.5218276,59.5852522 L2.47089186,73.6361879 C2.18862829,73.9184515 1.81806689,74.060307 1.44750548,74.060307 L15.323293,74.060307 L29.7983479,59.5852522 Z" id="Shape" fill="#EACC18"></path>
            <polygon id="Shape" fill="#424A60" points="59.3477248 74.060307 59.3477248 68.8695524 54.1569701 74.060307"></polygon>
            <polygon id="Shape" fill="#4F5970" points="30.3976151 63.0795304 19.4168385 74.060307 30.3976151 74.060307"></polygon>
        </g>
    </g>
</svg>