<?xml version="1.0" encoding="UTF-8"?>
<svg width="159px" height="30px" viewBox="0 0 159 30" version="1.1" xmlns="http://www.w3.org/2000/svg" xmlns:xlink="http://www.w3.org/1999/xlink">
    <!-- Generator: Sketch 45.1 (43504) - http://www.bohemiancoding.com/sketch -->
    <title>Artboard Copy</title>
    <desc>Created with Sketch.</desc>
    <defs></defs>
    <g id="Page-2" stroke="none" stroke-width="1" fill="none" fill-rule="evenodd">
        <g id="Artboard-Copy">
            <g id="Group-2" transform="translate(2.000000, 0.000000)">
                <g id="Group" transform="translate(0.953416, 0.784650)" fill-rule="nonzero">
                    <polygon id="Shape" fill="#3F51B5" points="18.2257403 25.4510592 0.0942059932 25.4510592 8.21105051 0.0828201695 11.6271096 4.51112573 6.16721718 21.1600074 15.255756 21.1600074"></polygon>
                    <polygon id="Shape" fill="#959FD6" points="28.8225108 27.3468768 23.3506087 27.3468768 12.3054239 11.7687305 14.0866034 6.62249415"></polygon>
                </g>
                <g id="Group-3" transform="translate(37.000000, 7.905535)" fill="#21455B">
                    <path d="M7.83046724,11.2328251 L2.48856117,11.2328251 L2.48856117,0.827799309 L0.312229075,0.827799309 L0.312229075,13.1033915 L7.83046724,13.1033915 L7.83046724,11.2328251 Z M14.4370041,11.8803289 C14.0323143,12.5997775 13.1959552,13.2472813 11.7930304,13.2472813 C9.94944329,13.2472813 8.67242198,12.1501221 8.67242198,10.3694867 C8.67242198,8.66978935 9.85051911,7.56363709 12.0448374,7.56363709 L14.4190179,7.56363709 L14.4190179,6.55640901 C14.4190179,5.55817404 13.8074866,5.11751175 12.7373067,5.11751175 C11.6401476,5.11751175 11.1275404,5.63911201 11.0466025,6.43949861 L9.02315319,6.43949861 C9.10409116,4.80275298 10.1472917,3.43580059 12.8092516,3.43580059 C15.012563,3.43580059 16.5323982,4.33511137 16.5323982,6.60137455 L16.5323982,13.1033915 L14.5269352,13.1033915 L14.5269352,11.8803289 L14.4370041,11.8803289 Z M12.4585204,11.6465081 C13.5646727,11.6465081 14.4190179,10.9090732 14.4190179,9.91083824 L14.4190179,8.93958259 L12.4405342,8.93958259 C11.3253888,8.93958259 10.7947954,9.47916906 10.7947954,10.2435832 C10.7947954,11.2058458 11.6041751,11.6465081 12.4585204,11.6465081 Z M18.95714,13.1033915 L21.1154858,13.1033915 L21.1154858,7.50967844 C21.1154858,6.23265713 21.6550723,5.29737391 23.2378593,5.29737391 C23.5885905,5.29737391 23.9483148,5.31536013 24.1191839,5.36931877 L24.1191839,3.50774545 C23.9303286,3.47177302 23.7055009,3.44479369 23.4177215,3.44479369 C21.9158724,3.44479369 21.3942722,4.22719408 21.1604514,4.82073919 L21.0795134,4.82073919 L21.0795134,3.58868342 L18.95714,3.58868342 L18.95714,13.1033915 Z M30.7077345,11.8803289 C30.3030447,12.5997775 29.4666856,13.2472813 28.0637608,13.2472813 C26.2201737,13.2472813 24.9431524,12.1501221 24.9431524,10.3694867 C24.9431524,8.66978935 26.1212495,7.56363709 28.3155678,7.56363709 L30.6897483,7.56363709 L30.6897483,6.55640901 C30.6897483,5.55817404 30.078217,5.11751175 29.0080371,5.11751175 C27.910878,5.11751175 27.3982708,5.63911201 27.3173329,6.43949861 L25.2938836,6.43949861 C25.3748216,4.80275298 26.4180221,3.43580059 29.079982,3.43580059 C31.2832934,3.43580059 32.8031287,4.33511137 32.8031287,6.60137455 L32.8031287,13.1033915 L30.7976656,13.1033915 L30.7976656,11.8803289 L30.7077345,11.8803289 Z M28.7292508,11.6465081 C29.8354031,11.6465081 30.6897483,10.9090732 30.6897483,9.91083824 L30.6897483,8.93958259 L28.7112646,8.93958259 C27.5961192,8.93958259 27.0655259,9.47916906 27.0655259,10.2435832 C27.0655259,11.2058458 27.8749056,11.6465081 28.7292508,11.6465081 Z M37.0624644,13.1033915 L39.3826862,13.1033915 L42.7551017,3.58868342 L40.5068247,3.58868342 L38.2855271,11.0709492 L38.195596,11.0709492 L36.1631536,3.58868342 L33.8429318,3.58868342 L37.0624644,13.1033915 Z M47.7158998,13.2652675 C44.9730019,13.2652675 43.4621598,11.5295977 43.4621598,8.76871354 L43.4621598,7.96832694 C43.4621598,5.20744283 44.9909881,3.42680748 47.5899963,3.42680748 C50.2699424,3.42680748 51.7088397,5.26140148 51.7088397,7.95933383 L51.7088397,8.81367908 L45.5575539,8.81367908 L45.5575539,9.11045164 C45.5575539,10.4324385 46.2590163,11.5835563 47.7069067,11.5835563 C48.8670176,11.5835563 49.4335834,10.9810181 49.5594869,10.3155281 L51.6099155,10.3155281 C51.4570327,11.5925494 50.404839,13.2652675 47.7158998,13.2652675 Z M45.5575539,7.38377493 L49.6404249,7.38377493 L49.6404249,7.36578872 C49.6404249,6.02581565 48.8760107,5.06355311 47.6079825,5.06355311 C46.3309612,5.06355311 45.5575539,6.03480875 45.5575539,7.36578872 L45.5575539,7.38377493 Z M53.6659398,13.1033915 L55.7883132,13.1033915 L55.7883132,0.180295543 L53.6659398,0.180295543 L53.6659398,13.1033915 Z" id="Laravel"></path>
                    <path d="M61.3116802,13.1033915 L60.5472661,13.1033915 L64.9359027,0.872764848 L65.7003169,0.872764848 L70.0889535,13.1033915 L69.29756,13.1033915 L67.8586628,8.98454813 L62.7595706,8.98454813 L61.3116802,13.1033915 Z M65.3315995,1.78106874 L65.2866339,1.78106874 L62.9664121,8.35503058 L67.6338351,8.35503058 L65.3315995,1.78106874 Z M71.9741088,13.1033915 L72.6935574,13.1033915 L72.6935574,7.4647129 C72.6935574,5.78300173 73.7007855,4.31712515 75.6253105,4.31712515 C77.3160148,4.31712515 78.2243187,5.48622918 78.2243187,7.13196791 L78.2243187,13.1033915 L78.9527604,13.1033915 L78.9527604,6.95210576 C78.9527604,4.82073919 77.5678218,3.64264207 75.7242347,3.64264207 C74.0155442,3.64264207 73.0442886,4.60490461 72.7295298,5.52220161 L72.6935574,5.52220161 L72.6935574,3.7955249 L71.9741088,3.7955249 L71.9741088,13.1033915 Z M85.0017246,15.6844135 C86.8812842,15.6844135 87.9334778,14.6591992 87.9334778,13.1663433 L87.9334778,10.8731008 L87.8975054,10.8731008 C87.7086501,11.4576528 86.8543049,12.8246052 84.8848142,12.8246052 C82.8523719,12.8246052 81.3055573,11.3227562 81.3055573,8.92159637 L81.3055573,7.5726302 C81.3055573,4.99160824 83.0052547,3.64264207 84.9028004,3.64264207 C86.8183324,3.64264207 87.6456983,4.83872541 87.9154916,5.55817404 L87.951464,5.55817404 L87.951464,3.7955249 L88.6529264,3.7955249 L88.6529264,13.139364 C88.6529264,15.1088546 87.2679878,16.3499035 84.9837384,16.3499035 C82.6455304,16.3499035 81.6293092,15.0099304 81.5843437,13.8588126 L82.3307716,13.8588126 C82.4027165,14.6951716 83.2300824,15.6844135 85.0017246,15.6844135 Z M84.9657522,4.29913894 C83.4099445,4.29913894 82.033999,5.41428431 82.033999,7.73450614 L82.033999,8.78669976 C82.033999,10.9450456 83.3290066,12.1591152 84.9657522,12.1591152 C86.8812842,12.1591152 87.9334778,10.5403558 87.9334778,8.8406584 L87.9334778,7.70752681 C87.9334778,5.80998106 86.7733669,4.29913894 84.9657522,4.29913894 Z M98.3980579,3.7955249 L97.6696162,3.7955249 L97.6696162,9.38024487 C97.6696162,11.0439698 96.6354088,12.5907844 94.7198768,12.5907844 C93.1640692,12.5907844 92.147848,11.6105356 92.147848,9.95580378 L92.147848,3.7955249 L91.4194062,3.7955249 L91.4194062,10.0907004 C91.4194062,12.2310601 92.8223311,13.2652675 94.6119595,13.2652675 C96.3746087,13.2652675 97.318885,12.2400532 97.6336438,11.3767148 L97.6696162,11.3767148 L97.6696162,13.1033915 L98.3980579,13.1033915 L98.3980579,3.7955249 Z M101.443324,13.1033915 L102.171766,13.1033915 L102.171766,0.198281759 L101.443324,0.198281759 L101.443324,13.1033915 Z M110.639876,11.5835563 C110.397062,12.1771014 109.479765,13.2652675 107.690137,13.2652675 C105.882522,13.2652675 104.650466,12.2040807 104.650466,10.4953902 C104.650466,8.9485757 105.720646,7.89638208 107.807047,7.89638208 L110.657862,7.89638208 L110.657862,6.53842279 C110.657862,4.98261514 109.677613,4.30813205 108.193751,4.30813205 C106.530026,4.30813205 105.864536,5.19844972 105.774605,5.93588457 L105.055156,5.93588457 C105.127101,4.74879433 106.152315,3.64264207 108.238716,3.64264207 C110.154248,3.64264207 111.395297,4.57792528 111.395297,6.4305055 L111.395297,13.1033915 L110.675848,13.1033915 L110.675848,11.5835563 L110.639876,11.5835563 Z M107.780068,12.6087706 C109.344869,12.6087706 110.657862,11.5385908 110.657862,9.95580378 L110.657862,8.54388584 L107.825033,8.54388584 C106.161308,8.54388584 105.41488,9.34427244 105.41488,10.477404 C105.41488,11.808384 106.413115,12.6087706 107.780068,12.6087706 Z M114.278687,13.1033915 L115.007129,13.1033915 L115.007129,7.35679561 C115.007129,5.32435323 116.176233,4.33511137 117.64211,4.33511137 C118.064786,4.33511137 118.361558,4.38907002 118.469476,4.41604934 L118.469476,3.71458693 C118.343572,3.69660071 118.082772,3.65163517 117.705061,3.65163517 C115.987378,3.65163517 115.231957,4.7128219 115.043101,5.5132085 L115.007129,5.5132085 L115.007129,3.7955249 L114.278687,3.7955249 L114.278687,13.1033915 Z" id="Angular"></path>
                </g>
            </g>
        </g>
    </g>
</svg>